Coordinates
version=1
nRows=13
nColumns=40
inDegrees=yes

Units are S.I. units (second, meters, Newtons, ...)
Angles are in degrees.

endheader
time	pelvis_tilt	pelvis_list	pelvis_rotation	pelvis_tx	pelvis_ty	pelvis_tz	hip_flexion_r	hip_adduction_r	hip_rotation_r	knee_angle_r	knee_angle_r_beta	ankle_angle_r	subtalar_angle_r	mtp_angle_r	hip_flexion_l	hip_adduction_l	hip_rotation_l	knee_angle_l	knee_angle_l_beta	ankle_angle_l	subtalar_angle_l	mtp_angle_l	lumbar_extension	lumbar_bending	lumbar_rotation	arm_flex_r	arm_add_r	arm_rot_r	elbow_flex_r	pro_sup_r	wrist_flex_r	wrist_dev_r	arm_flex_l	arm_add_l	arm_rot_l	elbow_flex_l	pro_sup_l	wrist_flex_l	wrist_dev_l
     29.45500000	     -4.12837487	     -3.52577613	     11.94849922	      0.93402502	      0.91896750	      0.49431811	      3.46054575	      3.80924316	    -16.33313911	     18.29089651	     18.29089651	     19.71433061	     -9.23843002	      1.09452532	     29.76199713	     -2.80271813	      4.59324505	     19.21692202	     19.21692202	      4.49606954	     -6.48433521	      1.49866296	     -7.92146980	      1.52981857	      3.67013768	     59.26392890	    -19.24444288	     -5.61739807	     82.95809624	     44.70190981	      0.00000000	      0.00000000	    -23.62679206	     -9.77721142	     16.00141449	     31.07323613	     43.41399052	      0.00000000	      0.00000000
     29.47435714	     -4.06924494	     -3.62069879	     12.30680693	      0.93555224	      0.91803177	      0.49025317	      2.70837642	      3.81036942	    -16.59435535	     18.03404342	     18.03404342	     19.97039690	     -9.16039120	      1.07942488	     29.62744083	     -2.64358377	      4.46095300	     19.88886028	     19.88886028	      4.22074617	     -6.83224557	      1.36072053	     -7.62910718	      1.53549429	      3.76368569	     60.96715388	    -19.49607772	     -5.81031860	     83.83514068	     44.69263122	      0.00000000	      0.00000000	    -24.32957827	     -9.92287021	     16.03884759	     30.97808886	     43.41518026	      0.00000000	      0.00000000
     29.49371429	     -3.95045860	     -3.74557797	     12.64143849	      0.93715752	      0.91710154	      0.48607616	      1.89692431	      3.84209184	    -16.87398677	     17.79210041	     17.79210041	     20.22308330	     -8.95919651	      1.03989982	     29.55878271	     -2.52458662	      4.47573263	     20.86691121	     20.86691121	      3.95318843	     -7.39614508	      1.00693793	     -7.39888840	      1.58116907	      3.79915924	     62.28533335	    -19.65499287	     -5.99512800	     84.78439212	     44.68071997	      0.00000000	      0.00000000	    -24.86792540	    -10.07278012	     16.03632510	     31.01919176	     43.42895307	      0.00000000	      0.00000000
     29.51307143	     -3.81046843	     -3.86469371	     12.92935814	      0.93880515	      0.91631286	      0.48182967	      1.10852884	      3.85879911	    -17.12493616	     17.63300138	     17.63300138	     20.41197589	     -8.80111745	      1.00346171	     29.48851520	     -2.40038939	      4.60785197	     21.94357012	     21.94357012	      3.79936494	     -8.06929171	      0.61407343	     -7.19289917	      1.60677711	      3.85435426	     63.27682130	    -19.82453253	     -6.24336636	     85.61587316	     44.67361163	      0.00000000	      0.00000000	    -25.12136744	    -10.23550423	     15.97768423	     31.11416996	     43.45571869	      0.00000000	      0.00000000
     29.53242857	     -3.65539152	     -3.99189625	     13.16187187	      0.94052232	      0.91574124	      0.47763190	      0.32373517	      3.88487997	    -17.34664168	     17.51148123	     17.51148123	     20.53868823	     -8.68177721	      0.97645112	     29.39931323	     -2.29464874	      4.83358980	     23.05664199	     23.05664199	      3.82364751	     -8.80128714	      0.26569847	     -7.02878118	      1.60463779	      3.94617972	     63.97769655	    -19.99677013	     -6.56043683	     86.34297208	     44.67113568	      0.00000000	      0.00000000	    -25.10684018	    -10.40583856	     15.86094318	     31.21323595	     43.49572349	      0.00000000	      0.00000000
     29.55178571	     -3.52508506	     -4.00400154	     13.29578201	      0.94214337	      0.91558665	      0.47349289	     -0.38978829	      3.76465754	    -17.40794097	     17.49184452	     17.49184452	     20.51823317	     -8.62959207	      0.99834040	     29.21588628	     -2.11052869	      5.00466010	     24.01936794	     24.01936794	      4.01436878	     -9.32039526	      0.02836862	     -6.86364146	      1.46075144	      3.96160204	     64.36253266	    -20.10743304	     -6.78769984	     86.72861615	     44.67176758	      0.00000000	      0.00000000	    -24.89608585	    -10.64593605	     15.73858535	     31.24734943	     43.52816008	      0.00000000	      0.00000000
     29.57114286	     -3.38001081	     -4.14851948	     13.36701553	      0.94374493	      0.91573694	      0.46954873	     -1.06251122	      3.78362735	    -17.46598897	     17.49335414	     17.49335414	     20.38391173	     -8.49572130	      1.01706031	     29.01454227	     -2.06222674	      5.30158862	     24.92759587	     24.92759587	      4.40104080	     -9.83390699	     -0.16478963	     -6.72397509	      1.44961134	      4.10949831	     64.54231742	    -20.21764573	     -7.12490509	     87.15772943	     44.67512167	      0.00000000	      0.00000000	    -24.45723540	    -10.84276077	     15.53192340	     31.31934819	     43.58086324	      0.00000000	      0.00000000
     29.59050000	     -3.30817229	     -4.22245661	     13.31963490	      0.94528696	      0.91628277	      0.46586220	     -1.58687713	      3.68754593	    -17.48277575	     17.62242644	     17.62242644	     20.14956926	     -8.44564416	      1.05590062	     28.68443238	     -2.00669690	      5.43269691	     25.50038969	     25.50038969	      4.88520859	    -10.10930828	     -0.33551048	     -6.52241571	      1.29163196	      4.17107373	     64.44623448	    -20.20660982	     -7.31645789	     87.36286517	     44.67775974	      0.00000000	      0.00000000	    -23.83878048	    -11.11282930	     15.32862527	     31.41444725	     43.62917337	      0.00000000	      0.00000000
     29.60985714	     -3.26978430	     -4.34656946	     13.17088723	      0.94667279	      0.91712320	      0.46246754	     -1.98174967	      3.61957220	    -17.42381944	     17.83664144	     17.83664144	     19.61399934	     -8.48768879	      0.55512948	     28.41101041	     -2.07257334	      5.38930614	     26.12580294	     26.12580294	      6.08021443	     -9.82963488	      0.72691663	     -6.38055643	      1.11748450	      4.94000985	     63.60296412	    -20.87611846	     -8.64319836	     89.05286095	     44.73186058	      0.00000000	      0.00000000	    -22.48379819	    -11.03207479	     12.77632839	     30.55010202	     44.21980138	      0.00000000	      0.00000000
     29.62921429	     -3.33204672	     -4.49864621	     12.93490834	      0.94785245	      0.91820421	      0.45929086	     -2.18937733	      3.53278318	    -17.38141018	     18.13845716	     18.13845716	     19.11679095	     -8.41681582	      0.66044710	     27.98913618	     -2.15717361	      5.40401087	     26.21741004	     26.21741004	      6.67693276	     -9.95366763	      0.49984167	     -6.14751494	      0.97777674	      4.75789686	     63.46106942	    -20.75958165	     -8.60177318	     89.00214068	     44.73234317	      0.00000000	      0.00000000	    -21.87383913	    -11.24617374	     12.69573016	     30.71505257	     44.24245222	      0.00000000	      0.00000000
     29.64857143	     -3.24348294	     -4.48188775	     12.60341187	      0.94872440	      0.91950776	      0.45653022	     -2.09507563	      3.17813815	    -17.20215556	     19.37809948	     19.37809948	     18.77598617	     -8.79495507	      0.37597480	     27.36781709	     -2.29923698	      4.82899487	     26.28087674	     26.28087674	      7.37855834	     -9.27010997	      0.10063525	     -6.09065341	      0.64300914	      5.06579632	     63.06586975	    -20.71536575	     -8.77927294	     88.59223225	     44.75776082	      0.00000000	      0.00000000	    -20.59973391	    -11.68697175	     12.14169881	     30.96344526	     44.36186566	      0.00000000	      0.00000000
     29.66792857	     -3.29231588	     -4.63391323	     12.21719568	      0.94929592	      0.92080262	      0.45406402	     -1.77935540	      2.99467438	    -16.99218669	     20.56050800	     20.56050800	     18.09016055	     -9.33809093	     -0.16198808	     26.89186519	     -2.63392544	      4.16255849	     26.23426209	     26.23426209	      8.13126806	     -8.38308729	     -0.33995692	     -5.91011557	      0.45350267	      5.20445284	     62.53990472	    -20.64570651	     -8.99621846	     88.36984090	     44.78599517	      0.00000000	      0.00000000	    -19.34308764	    -11.93222204	     11.06832494	     30.93474666	     44.57528100	      0.00000000	      0.00000000
     29.68728571	     -3.26658737	     -4.62668619	     11.80104317	      0.94955353	      0.92238398	      0.45166059	     -1.35641005	      2.58299222	    -16.84417879	     22.12057956	     22.12057956	     17.46495538	     -9.85297811	     -0.54643278	     26.11759246	     -2.77958571	      3.59255364	     25.84098239	     25.84098239	      8.71105062	     -7.84373702	     -0.62339018	     -5.93816160	      0.12834747	      5.11241777	     62.14516575	    -20.37241191	     -8.88823782	     88.18191015	     44.79327168	      0.00000000	      0.00000000	    -18.05847024	    -12.27210323	     10.55259173	     31.08608272	     44.68338392	      0.00000000	      0.00000000
